<svg id="Layer_1" data-name="Layer 1" xmlns="http://www.w3.org/2000/svg" viewBox="0 0 373.44 374.03"><defs><style>.cls-1{fill:#fff;}</style></defs><path class="cls-1" d="M186.44,374.86C82.87,374.87,0,291.19,0,186.64,0,87.62,81.31-.15,188.28.84,291,1.79,374.19,86.46,373.44,189.49,372.7,291.27,289,374.85,186.44,374.86Zm171.37-187c-.14-94.64-77-171.42-171.45-171.26A171,171,0,0,0,15.67,187.81c.06,94.81,76.56,171.56,170.69,171.24C281.32,358.73,358,282.2,357.81,187.83Z" transform="translate(0 -0.83)"/><path class="cls-1" d="M229,110.77v27.31c-4.54,0-8.84-.19-13.11,0-10.66.56-13.77,3.94-13.8,14.63,0,5.14,0,10.29,0,16h27.27c-2.58,10.38-4.88,20-7.51,29.58-.26,1-2.51,1.87-3.87,1.93-5.11.23-10.24.09-15.91.09v66h-31V200.49H147.28c0-10.08-.12-19.38.18-28.65,0-1,2.54-2.64,4-2.71,6.27-.3,12.56-.13,19.56-.13,0-8.9-.22-17.19.06-25.47a33.34,33.34,0,0,1,9.21-22.61c6.46-6.78,14.67-9.69,23.74-10.07C212.12,110.5,220.28,110.77,229,110.77Z" transform="translate(0 -0.83)"/><polygon class="cls-1" points="221.19 199.6 147.25 199.6 147.25 167.68 229.38 167.68 221.19 199.6"/></svg>