<svg id="Layer_1" data-name="Layer 1" xmlns="http://www.w3.org/2000/svg" viewBox="0 0 373.94 374.03"><defs><style>.cls-1{fill:#fff;}</style></defs><path class="cls-1" d="M374,188.5C373.88,292,290,375.22,185.76,375.13,83.76,375-.36,290.37,0,187.92.39,81.9,87.22-.53,190.07,1.12,291.61,2.76,374.44,86,374,188.5ZM187.45,16.85C93.19,16.53,16.06,93,15.72,187.18a171.29,171.29,0,0,0,170.9,172.13C280,359.79,358,283.31,358.33,191,358.72,94.17,283.18,17.18,187.45,16.85Z" transform="translate(-0.01 -1.1)"/><path class="cls-1" d="M184.79,163.54c0-2.14,0-3.76,0-5.38-.44-13.8,5.3-24.32,17.44-30.77s24.29-5.08,35.11,3.3c3.42,2.64,6.2,3.21,9.9,1.69,4.46-1.83,9-3.54,14-5.55-1.83,7-6.39,11.58-11,16.94l14.33-3.88.83.68c-3.6,3.84-6.85,8.12-10.91,11.38-3.52,2.82-4.49,5.82-4.58,10.11-.85,43.51-31.3,80.37-73.72,88.87a91.4,91.4,0,0,1-65.1-10.48c-.54-.31-1-.74-2.69-2,17.56.76,32.59-3.06,46.45-13.49-14.46-2-24.36-8.75-29.75-22.91h11.9c-14.08-6.32-22.34-16.22-23.4-32.3L125.75,173l.78-.93c-5.86-5.39-10.43-11.52-11.88-19.43s-.69-15.18,3.8-22.74C136.16,150.14,157.93,161.66,184.79,163.54Z" transform="translate(-0.01 -1.1)"/></svg>